<svg width="36" height="36" viewBox="0 0 36 36" fill="none" xmlns="http://www.w3.org/2000/svg">
<path fill-rule="evenodd" clip-rule="evenodd" d="M18 36C27.9411 36 36 27.9411 36 18C36 8.05887 27.9411 0 18 0C8.05887 0 0 8.05887 0 18C0 27.9411 8.05887 36 18 36ZM9.99546 6.46938C10.7697 6.16515 11.6553 5.9582 12.9521 5.89701C14.2522 5.83363 14.6666 5.81949 17.9767 5.81315C21.2869 5.80682 21.7044 5.8212 23.0018 5.87726C24.2991 5.93333 25.1852 6.13785 25.9609 6.43793C26.7636 6.74703 27.4442 7.16265 28.1224 7.83911C28.8006 8.51556 29.2186 9.19397 29.5319 9.99523C29.8358 10.7702 30.0423 11.6529 30.104 12.9526C30.1657 14.2524 30.1805 14.6673 30.1869 17.9767C30.1932 21.2861 30.1798 21.7014 30.123 23.0024C30.0667 24.2988 29.8627 25.1854 29.5623 25.9606C29.2525 26.7635 28.8366 27.4436 28.1611 28.1223C27.4857 28.8009 26.8063 29.2188 26.005 29.5322C25.2303 29.835 24.3496 30.0427 23.0496 30.1044C21.7495 30.166 21.3329 30.1807 18.024 30.187C14.7151 30.1933 14.2975 30.1802 13.0002 30.1234C11.7028 30.0666 10.8162 29.8623 10.041 29.5627C9.23661 29.2521 8.55747 28.837 7.87906 28.161C7.20065 27.4851 6.7821 26.8062 6.46934 26.0049C6.16512 25.2305 5.95889 24.3451 5.89697 23.0485C5.83408 21.7482 5.81945 21.3334 5.81311 18.0235C5.80677 14.7136 5.81945 14.2965 5.87674 12.9989C5.93402 11.7014 6.13733 10.815 6.43741 10.0391C6.74748 9.23663 7.16359 8.557 7.83932 7.87884C8.51505 7.20068 9.19419 6.78164 9.99546 6.46938ZM10.8309 27.5163C11.2609 27.6816 11.9061 27.879 13.0945 27.9307H13.0947C14.3801 27.9863 14.7641 27.9994 18.0189 27.9924C21.2737 27.9853 21.6588 27.9726 22.9442 27.9122C24.1312 27.8556 24.7764 27.6557 25.2054 27.4882C25.7744 27.2659 26.1798 27.0022 26.6054 26.5741C27.031 26.1461 27.2955 25.7402 27.5149 25.171C27.6804 24.7405 27.8774 24.095 27.9293 22.9066C27.9856 21.6222 27.9971 21.2358 27.9912 17.9825C27.9854 14.7292 27.9715 14.3438 27.9103 13.0584C27.8542 11.8698 27.6548 11.2255 27.4869 10.7972C27.2646 10.2273 27.0006 9.82289 26.5723 9.39678C26.144 8.97068 25.7386 8.70716 25.1689 8.48777C24.7396 8.32177 24.0934 8.12505 22.906 8.07337C21.6201 8.01681 21.234 8.00463 17.9804 8.01169C14.7268 8.01876 14.3416 8.03095 13.0562 8.09189C11.8683 8.14845 11.2238 8.34785 10.7943 8.51556C10.2256 8.73788 9.81971 9.00164 9.39433 9.42994C8.96895 9.85823 8.7047 10.2631 8.48531 10.8333C8.32028 11.2631 8.12161 11.9091 8.0709 13.0964C8.01459 14.3813 8.00216 14.7665 8.00923 18.0206C8.0163 21.2746 8.02898 21.6602 8.08943 22.9447C8.14501 24.133 8.34612 24.7775 8.5131 25.2076C8.73542 25.7758 8.99869 26.1829 9.42724 26.6073C9.85578 27.0317 10.2614 27.2969 10.8309 27.5163ZM23.2787 12.2981C23.1175 12.0578 23.0313 11.7752 23.0308 11.4859C23.0301 11.098 23.1835 10.7258 23.4573 10.4511C23.731 10.1764 24.1026 10.0216 24.4905 10.0208C24.7798 10.0202 25.0627 10.1055 25.3036 10.2657C25.5445 10.426 25.7324 10.6541 25.8436 10.9211C25.9548 11.1882 25.9843 11.4822 25.9284 11.7661C25.8725 12.0499 25.7337 12.3108 25.5295 12.5158C25.3253 12.7207 25.0649 12.8605 24.7813 12.9174C24.4977 12.9744 24.2035 12.9459 23.936 12.8357C23.6686 12.7254 23.4398 12.5384 23.2787 12.2981ZM18.0118 24.2581C14.5559 24.2647 11.7487 21.4689 11.7418 18.0123C11.7352 14.5561 14.5315 11.7484 17.9879 11.7416C21.4443 11.7348 24.2523 14.5313 24.2589 17.9879C24.2655 21.4445 21.4677 24.2515 18.0118 24.2581ZM14.6175 15.7493C14.1724 16.4183 13.9356 17.2043 13.9372 18.0079C13.9382 18.5414 14.0443 19.0696 14.2494 19.5621C14.4546 20.0547 14.7547 20.502 15.1328 20.8786C15.5108 21.2551 15.9593 21.5535 16.4527 21.7567C16.946 21.9598 17.4746 22.0638 18.0082 22.0627C18.8117 22.0611 19.5968 21.8213 20.264 21.3735C20.9313 20.9258 21.4508 20.2902 21.7568 19.5472C22.0629 18.8042 22.1417 17.9871 21.9834 17.1993C21.825 16.4115 21.4366 15.6883 20.8673 15.1213C20.298 14.5542 19.5733 14.1687 18.7848 14.0135C17.9964 13.8583 17.1797 13.9403 16.4379 14.2493C15.6961 14.5583 15.0626 15.0803 14.6175 15.7493Z" fill="black"/>
</svg>
