<svg width="36" height="36" viewBox="0 0 36 36" fill="none" xmlns="http://www.w3.org/2000/svg">
<g clip-path="url(#clip0_486_33)">
<path d="M18 0C13.2261 0 8.64773 1.89642 5.27208 5.27208C1.89642 8.64773 0 13.2261 0 18C0 22.7739 1.89642 27.3523 5.27208 30.7279C8.64773 34.1036 13.2261 36 18 36C22.7739 36 27.3523 34.1036 30.7279 30.7279C34.1036 27.3523 36 22.7739 36 18C36 13.2261 34.1036 8.64773 30.7279 5.27208C27.3523 1.89642 22.7739 0 18 0ZM26.2552 25.9605C26.0994 26.2139 25.8494 26.3952 25.5602 26.4648C25.2709 26.5344 24.9658 26.4865 24.7117 26.3318C20.484 23.751 15.165 23.166 8.89875 24.5992C8.60844 24.6655 8.3037 24.6137 8.05158 24.4552C7.79946 24.2968 7.62061 24.0447 7.55438 23.7544C7.48814 23.4641 7.53994 23.1593 7.69838 22.9072C7.85683 22.6551 8.10894 22.4762 8.39925 22.41C15.2573 20.844 21.1388 21.5168 25.8818 24.417C26.1355 24.5725 26.3173 24.8223 26.3873 25.1116C26.4573 25.4009 26.4098 25.7061 26.2552 25.9605ZM28.458 21.06C28.2631 21.3771 27.9502 21.6037 27.5882 21.6902C27.2262 21.7767 26.8447 21.7159 26.5275 21.5212C21.69 18.549 14.3145 17.6873 8.5905 19.4243C8.2421 19.507 7.87524 19.4538 7.56474 19.2754C7.25425 19.097 7.02352 18.8068 6.91962 18.4641C6.81572 18.1214 6.84648 17.752 7.00562 17.4312C7.16475 17.1104 7.44028 16.8624 7.776 16.7378C14.3123 14.7555 22.4393 15.7162 27.9945 19.1295C28.3119 19.3241 28.5391 19.6367 28.626 19.9988C28.7129 20.3608 28.6525 20.7425 28.458 21.06ZM28.647 15.957C22.8465 12.51 13.275 12.1927 7.7355 13.8735C7.30824 14.003 6.84703 13.9575 6.45335 13.7469C6.05966 13.5363 5.76574 13.178 5.63625 12.7507C5.50676 12.3235 5.5523 11.8623 5.76286 11.4686C5.97341 11.0749 6.33174 10.781 6.759 10.6515C13.1152 8.72325 23.6858 9.0945 30.366 13.059C30.7503 13.287 31.0283 13.6582 31.1389 14.0912C31.2494 14.5241 31.1835 14.9832 30.9555 15.3675C30.7275 15.7518 30.3563 16.0298 29.9233 16.1404C29.4904 16.2509 29.0313 16.185 28.647 15.957Z" fill="#FFFCF9"/>
</g>
<defs>
<clipPath id="clip0_486_33">
<rect width="36" height="36" fill="white"/>
</clipPath>
</defs>
</svg>
